<svg width="1076" height="1076" viewBox="190 190 690 690" fill="none" xmlns="http://www.w3.org/2000/svg">
<path fill-rule="evenodd" clip-rule="evenodd" d="M624.434 653.83L582.549 772.205C577.496 786.484 564.6 796.502 549.538 797.846C534.478 799.192 520.016 791.617 512.523 778.458L419.67 615.4C416.24 609.377 411.259 604.387 405.248 600.951L242.504 507.918C229.372 500.41 221.811 485.921 223.153 470.831C224.496 455.741 234.494 442.82 248.746 437.758L689.415 281.228C703.467 276.236 719.132 279.785 729.674 290.348C740.217 300.91 743.758 316.605 738.776 330.685L699.26 442.364C698.11 441.117 696.932 439.887 695.723 438.676C668.674 411.576 623.219 407.147 589.851 408.508L589.811 408.51C588.12 408.582 586.648 408.813 585.375 409.183C584.327 409.461 583.313 409.818 582.34 410.248L579.202 410.979L570.211 417.137L565.618 421.739L561.936 426.238L559.227 431.323L557.554 436.838L556.982 442.629L557.554 448.42L559.227 453.935L561.936 459.02L565.618 463.52L614.315 512.31L591.305 535.364L542.609 486.573L538.118 482.884L533.043 480.169L527.539 478.493L521.759 477.921L515.979 478.493L510.474 480.169L505.399 482.884L500.908 486.573L496.315 491.177L490.169 500.184L487.795 510.429C487.745 510.524 487.715 510.652 487.706 510.813L487.704 510.852C486.344 544.284 490.765 589.828 517.813 616.928C546.582 645.753 585.865 657.695 623.339 652.734L624.434 653.83Z" fill="white"/>
<path fill-rule="evenodd" clip-rule="evenodd" d="M836.672 757.626C814.904 779.458 779.611 779.458 757.843 757.626L631.16 630.575C597.069 638.401 559.83 629.007 533.298 602.398C510.318 579.351 508.085 540.2 509.241 511.768V511.763C509.334 509.556 510.25 507.464 511.808 505.902L516.399 501.297C518.048 499.643 520.285 498.714 522.617 498.714C524.949 498.714 527.185 499.643 528.834 501.297L586.215 558.844C589.487 562.126 594.792 562.126 598.064 558.844L638.467 518.324C641.739 515.042 641.739 509.722 638.467 506.44L581.087 448.893C579.438 447.239 578.511 444.996 578.511 442.656C578.511 440.318 579.438 438.075 581.087 436.421L585.678 431.817C587.235 430.254 589.322 429.335 591.523 429.241H591.527C619.877 428.083 658.915 430.322 681.895 453.369C708.427 479.978 717.793 517.326 709.991 551.516L836.675 678.567C858.442 700.398 858.442 735.793 836.675 757.624L836.672 757.626ZM818.764 697.298C807.113 685.613 788.188 685.618 776.531 697.309C764.874 709 764.869 727.979 776.521 739.665C788.173 751.351 807.097 751.346 818.755 739.655C830.412 727.964 830.417 708.984 818.764 697.298Z" fill="white"/>
</svg>
