<?xml version="1.0" ?>
<svg xmlns:inkscape="http://www.inkscape.org/namespaces/inkscape" xmlns:sodipodi="http://sodipodi.sourceforge.net/DTD/sodipodi-0.dtd" xmlns="http://www.w3.org/2000/svg" width="512" height="512" viewBox="0 0 512 512" version="1.1" inkscape:export-xdpi="96" inkscape:export-ydpi="96" style="fill: none; stroke: none">
   <defs/>
   <sodipodi:namedview inkscape:pagecheckerboard="true" borderlayer="true" bordercolor="#666666" pagecolor="#ffffff"/>
   <g inkscape:groupmode="layer" id="g_1" transform="matrix(5.069306930693069, 0.0, 0.0, 5.069306930693069, 0.0, 2.534653465346537)" inkscape:label="PreCompLayer">
      <g inkscape:groupmode="layer" id="g_2" transform="matrix(1.0, 0.0, 0.0, 1.0, 0.0, 0.0)" inkscape:label="ShapeLayer" style="">
         <g id="g_3" transform="matrix(1.0, 0.0, 0.0, 1.0, 0.0, 0.0)" style="stroke:rgb(255, 255, 255);stroke-opacity:1.0;stroke-width:4.5;stroke-miterlimit:0.0;stroke-linecap:round;stroke-linejoin:round">
            <path d="M 49.759,76.781 C 51.584,77.10900000000001 53.469,77.149 55.399,77.149 C 57.853,77.149 60.236000000000004,76.874 62.513,76.349 C 62.513,76.349 63.428999999999995,76.706 64.244,77.459 C 65.232,78.376 66.699,79.73 69.118,81.09 C 72.208,82.82600000000001 76.48599999999999,82.679 77.20899999999999,82.373 C 77.90199999999999,82.083 77.37199999999999,81.503 76.42999999999999,80.479 C 75.77799999999999,79.771 74.93299999999999,78.849 74.16399999999999,77.669 C 72.28399999999999,74.776 73.05899999999998,71.333 73.90399999999998,70.712 C 80.49899999999998,65.869 84.37399999999998,59.04600000000001 84.37399999999998,50.72 C 84.37399999999998,46.606 83.34399999999998,42.714 81.50599999999999,39.242999999999995 " style=""/>
         </g>
         <g id="g_4" transform="matrix(1.0, 0.0, 0.0, 1.0, 0.0, 0.0)" style="stroke:rgb(255, 255, 255);stroke-opacity:1.0;stroke-width:5.0;stroke-miterlimit:0.0;stroke-linecap:round;stroke-linejoin:round">
            <path d="M 46.137,17.438 C 54.357,17.438 61.782,20.534 67.09100000000001,25.519 C 72.20500000000001,30.319 75.35100000000001,36.866 75.35100000000001,44.086 C 75.35100000000001,58.801 62.26900000000001,70.734 46.137000000000015,70.734 C 45.37133316783034,70.73425026416437 44.60588302045823,70.708234965038 43.84200000000001,70.65599999999999 C 43.84200000000001,70.65599999999999 43.77500000000001,70.651 43.77500000000001,70.651 C 42.15667313378925,70.53445348495927 40.549839532360856,70.29239199360802 38.969000000000015,69.92699999999999 C 38.969000000000015,69.92699999999999 38.039000000000016,70.28699999999999 37.219000000000015,71.047 C 36.222000000000016,71.971 34.74900000000002,73.337 32.30900000000001,74.707 C 29.193000000000012,76.458 24.87500000000001,76.30999999999999 24.14600000000001,76.00099999999999 C 23.44700000000001,75.70899999999999 23.981000000000012,75.12299999999999 24.93100000000001,74.091 C 25.58800000000001,73.378 26.441000000000013,72.448 27.21600000000001,71.25699999999999 C 29.11100000000001,68.341 28.330000000000013,64.87499999999999 27.478000000000012,64.249 C 20.82800000000001,59.36599999999999 16.92200000000001,52.48 16.92200000000001,44.086 C 16.92200000000001,29.369999999999997 30.004000000000012,17.438 46.137000000000015,17.438 C 46.137000000000015,17.438 46.137,17.438 46.137,17.438 Z" style=""/>
         </g>
      </g>
   </g>
</svg>
