<?xml version="1.0" ?>
<svg xmlns:inkscape="http://www.inkscape.org/namespaces/inkscape" xmlns:sodipodi="http://sodipodi.sourceforge.net/DTD/sodipodi-0.dtd" xmlns="http://www.w3.org/2000/svg" width="512" height="512" viewBox="0 0 512 512" version="1.1" inkscape:export-xdpi="96" inkscape:export-ydpi="96" style="fill: none; stroke: none">
   <defs/>
   <sodipodi:namedview inkscape:pagecheckerboard="true" borderlayer="true" bordercolor="#666666" pagecolor="#ffffff"/>
   <g inkscape:groupmode="layer" id="g_1" transform="matrix(5.12, 0.0, 0.0, 5.12, 0.0, 0.0)" inkscape:label="PreCompLayer">
      <g inkscape:groupmode="layer" id="g_2" transform="matrix(1.0, 0.0, 0.0, 1.0, 0.0, 0.0)" inkscape:label="ShapeLayer" style="">
         <g id="g_3" transform="matrix(1.0, 0.0, 0.0, 1.0, 0.0, 0.0)" style="fill-opacity:1.0;fill:rgb(255, 255, 255);fill-rule:evenodd">
            <path d="M 41.313,33 C 41.313,37.474523522899446 37.63102352289945,41.1565 33.1565,41.1565 C 28.681976477100555,41.1565 25.0,37.474523522899446 25,33 C 25.0,28.525476477100554 28.681976477100555,24.8435 33.1565,24.8435 C 37.63102352289945,24.8435 41.313,28.525476477100554 41.313,33 C 41.313,33 41.313,33 41.313,33 Z
M 46.075,35.5 C 44.907000000000004,41.57 39.567,46.156 33.156000000000006,46.156 C 25.89,46.156 20,40.266 20,33 C 20,25.734 25.89,19.844 33.156,19.844 C 39.567,19.844 44.908,24.43 46.076,30.5 C 46.076,30.5 76,30.5 76,30.5 C 77.37145942588715,30.5 78.5,31.62854057411284 78.5,33 C 78.5,34.37145942588716 77.37145942588715,35.5 76,35.5 C 76,35.5 46.075,35.5 46.075,35.5 C 46.075,35.5 46.075,35.5 46.075,35.5 Z
M 58.688,67 C 58.687999905712246,71.47424923101427 62.36975059711089,75.15600007107507 66.84399982812515,75.15600016536283 C 71.31824905913942,75.15600025965058 74.99999990571224,71.47424923101427 75,67 C 74.99999990571224,62.52575083394832 71.31824916605167,58.84400016536282 66.844,58.84400016536282 C 62.369750833948316,58.84400016536282 58.68800009428775,62.52575083394832 58.688,67 C 58.688,67 58.688,67 58.688,67 Z
M 53.925000000000004,69.5 C 55.093,75.57 60.43300000000001,80.156 66.84400000000001,80.156 C 74.11,80.156 80,74.266 80,67 C 80,59.734 74.11,53.844 66.844,53.844 C 60.43299999999999,53.844 55.092999999999996,58.43 53.92399999999999,64.5 C 53.92399999999999,64.5 24,64.5 24,64.5 C 22.62854057411284,64.5 21.5,65.62854057411285 21.5,67 C 21.5,68.37145942588715 22.62854057411284,69.5 24,69.5 C 24,69.5 53.925,69.5 53.925,69.5 C 53.925,69.5 53.925000000000004,69.5 53.925000000000004,69.5 Z" style="fill-opacity:1.0;fill:rgb(255, 255, 255);fill-rule:evenodd"/>
         </g>
      </g>
   </g>
</svg>
