<?xml version="1.0" ?>
<svg xmlns:inkscape="http://www.inkscape.org/namespaces/inkscape" xmlns:sodipodi="http://sodipodi.sourceforge.net/DTD/sodipodi-0.dtd" xmlns="http://www.w3.org/2000/svg" width="512" height="512" viewBox="0 0 512 512" version="1.1" inkscape:export-xdpi="96" inkscape:export-ydpi="96" style="fill: none; stroke: none">
   <defs/>
   <sodipodi:namedview inkscape:pagecheckerboard="true" borderlayer="true" bordercolor="#666666" pagecolor="#ffffff"/>
   <g inkscape:groupmode="layer" id="g_1" transform="matrix(5.12, 0.0, 0.0, 5.12, 0.0, 0.0)" inkscape:label="PreCompLayer">
      <g inkscape:groupmode="layer" id="g_2" transform="matrix(1.0, 0.0, 0.0, 1.0, 0.0, 0.0)" inkscape:label="ShapeLayer" style="">
         <g id="g_3" transform="matrix(1.0, 0.0, 0.0, 1.0, 0.0, 0.0)" style="fill-opacity:1.0;fill:rgb(255, 255, 255);fill-rule:evenodd">
            <path d="M 20,50 C 20,66.569 33.432,80 50,80 C 66.569,80 80,66.569 80,50 C 80,33.432 66.569,20 50,20 C 33.432,20 20,33.432 20,50 C 20,50 20,50 20,50 Z
M 50,15 C 30.67,15 15,30.67 15,50 C 15,69.33 30.67,85 50,85 C 69.33,85 85,69.33 85,50 C 85,30.67 69.33,15 50,15 C 50,15 50,15 50,15 Z" style="fill-opacity:1.0;fill:rgb(255, 255, 255);fill-rule:evenodd"/>
         </g>
         <g id="g_4" transform="matrix(1.0, 0.0, 0.0, 1.0, 0.0, 0.0)" style="fill-opacity:1.0;fill:rgb(255, 255, 255);fill-rule:evenodd">
            <path d="M 53.813,30.249 C 53.813,32.34047562447792 52.09197562447792,34.061499999999995 50.0005,34.061499999999995 C 47.90902437552209,34.061499999999995 46.188,32.34047562447792 46.188,30.249 C 46.188,28.15779866740726 47.90879866740726,26.436999999999998 50,26.436999999999998 C 52.09120133259274,26.436999999999998 53.812000000000005,28.15779866740726 53.812000000000005,30.249 C 53.812000000000005,30.249 53.813,30.249 53.813,30.249 Z
M 36.063,39.873999999999995 C 38.15420133259274,39.873999999999995 39.875,38.15320133259274 39.875,36.062 C 39.875,33.97079866740726 38.15420133259274,32.24999999999999 36.063,32.24999999999999 C 33.97179866740726,32.24999999999999 32.251000000000005,33.97079866740726 32.251000000000005,36.062 C 32.251000000000005,38.15320133259274 33.97179866740726,39.873999999999995 36.063,39.873999999999995 C 36.063,39.873999999999995 36.063,39.873999999999995 36.063,39.873999999999995 Z
M 30.313000000000002,53.812 C 32.40420133259274,53.812 34.125,52.09120133259274 34.125,50 C 34.125,47.90879866740726 32.40420133259274,46.187999999999995 30.313000000000002,46.187999999999995 C 28.221798667407263,46.187999999999995 26.501,47.90879866740726 26.501,50 C 26.501,52.09120133259274 28.221798667407263,53.812 30.313000000000002,53.812 C 30.313000000000002,53.812 30.313000000000002,53.812 30.313000000000002,53.812 Z
M 39.875,63.937999999999995 C 39.875,66.02947562447791 38.153975624477916,67.75049999999999 36.0625,67.75049999999999 C 33.971024375522084,67.75049999999999 32.25,66.02947562447791 32.25,63.937999999999995 C 32.25,61.84652437552208 33.971024375522084,60.125499999999995 36.0625,60.125499999999995 C 38.153975624477916,60.125499999999995 39.875,61.84652437552208 39.875,63.937999999999995 C 39.875,63.937999999999995 39.875,63.937999999999995 39.875,63.937999999999995 Z
M 60.125,63.937999999999995 C 60.125,66.02947562447791 61.846024375522084,67.75049999999999 63.9375,67.75049999999999 C 66.02897562447792,67.75049999999999 67.75,66.02947562447791 67.75,63.937999999999995 C 67.75,61.84652437552208 66.02897562447792,60.125499999999995 63.9375,60.125499999999995 C 61.846024375522084,60.125499999999995 60.125,61.84652437552208 60.125,63.937999999999995 C 60.125,63.937999999999995 60.125,63.937999999999995 60.125,63.937999999999995 Z
M 65.875,50 C 65.875,52.091475624477916 67.59602437552208,53.8125 69.6875,53.8125 C 71.77897562447792,53.8125 73.5,52.091475624477916 73.5,50 C 73.5,47.908524375522084 71.77897562447792,46.1875 69.6875,46.1875 C 67.59602437552208,46.1875 65.875,47.908524375522084 65.875,50 C 65.875,50 65.875,50 65.875,50 Z
M 47.873999999999995,43.961 C 46.590927224669144,44.795971412869584 45.398467290425785,45.762540960468755 44.315999999999995,46.845 C 44.315999999999995,46.845 44.242,46.919 44.242,46.919 C 41.8172597350315,49.34346597308332 41.81703402691667,53.3337597350315 44.241499999999995,55.7585 C 46.66596597308332,58.1832402649685 50.6562597350315,58.18346597308332 53.080999999999996,55.759 C 53.080999999999996,55.759 53.154999999999994,55.684 53.154999999999994,55.684 C 54.23753488222541,54.60160104290718 55.2041111390059,53.40913283152541 56.038999999999994,52.126 C 56.038999999999994,52.126 66.868,35.483999999999995 66.868,35.483999999999995 C 67.86999999999999,33.943999999999996 66.056,32.129999999999995 64.51599999999999,33.132 C 64.51599999999999,33.132 47.873999999999995,43.961999999999996 47.873999999999995,43.961999999999996 C 47.873999999999995,43.961999999999996 47.873999999999995,43.961 47.873999999999995,43.961 Z" style="fill-opacity:1.0;fill:rgb(255, 255, 255);fill-rule:evenodd"/>
         </g>
      </g>
   </g>
</svg>
