<?xml version="1.0" ?>
<svg xmlns:inkscape="http://www.inkscape.org/namespaces/inkscape" xmlns:sodipodi="http://sodipodi.sourceforge.net/DTD/sodipodi-0.dtd" xmlns="http://www.w3.org/2000/svg" width="512" height="512" viewBox="0 0 512 512" version="1.1" inkscape:export-xdpi="96" inkscape:export-ydpi="96" style="fill: none; stroke: none">
   <defs/>
   <sodipodi:namedview inkscape:pagecheckerboard="true" borderlayer="true" bordercolor="#666666" pagecolor="#ffffff"/>
   <g inkscape:groupmode="layer" id="g_1" transform="matrix(5.12, 0.0, 0.0, 5.12, 0.0, 0.0)" inkscape:label="PreCompLayer">
      <g inkscape:groupmode="layer" id="g_2" transform="matrix(1.0, 0.0, 0.0, 1.0, 0.0, 0.0)" inkscape:label="ShapeLayer" style="">
         <g id="g_3" transform="matrix(1.0, 0.0, 0.0, 1.0, 0.0, 0.0)" style="stroke:rgb(255, 255, 255);stroke-opacity:1.0;stroke-width:5.0;stroke-miterlimit:0.0;stroke-linecap:round;stroke-linejoin:round">
            <path d="M 50.063,81 C 50.063,81 61.35,81 61.35,81 C 64.98,81 66.794,81.0 68.265,80.534 C 71.36750906711784,79.55315883774837 73.8036829678465,77.1173585833235 74.785,74.015 C 75.25,72.544 75.25,70.729 75.25,67.1 C 75.25,67.1 75.25,50.625 75.25,50.625 C 75.25,50.625 24.875,50.625 24.875,50.625 C 24.875,50.625 24.875,67.1 24.875,67.1 C 24.875,70.72999999999999 24.875,72.544 25.34,74.015 C 26.321039985541184,77.11774012970666 28.757259870293346,79.55396001445881 31.86,80.535 C 33.33,81.0 35.146,81 38.775,81 C 38.775,81 50.063,81 50.063,81 C 50.063,81 50.063,81 50.063,81 Z
M 50.063,81 C 50.063,81 50.063,33.625 50.063,33.625 " style=""/>
         </g>
         <g id="g_4" transform="matrix(1.0, 0.0, 0.0, 1.0, 0.0, 0.0)" style="stroke:rgb(255, 255, 255);stroke-opacity:1.0;stroke-width:5.0;stroke-miterlimit:0.0;stroke-linecap:round;stroke-linejoin:round">
            <path d="M 21.25,44.583 C 21.25,42.647999999999996 21.25,41.68 21.384,40.870999999999995 C 22.080345997755884,36.654837897621 25.40575339503133,33.32983416718184 29.622,32.63399999999999 C 30.431,32.49999999999999 31.399,32.49999999999999 33.334,32.49999999999999 C 33.334,32.49999999999999 66.791,32.49999999999999 66.791,32.49999999999999 C 68.726,32.49999999999999 69.694,32.49999999999999 70.503,32.63399999999999 C 74.71924660496867,33.329834167181836 78.04465400224412,36.654837897621 78.741,40.870999999999995 C 78.874,41.67999999999999 78.874,42.647999999999996 78.874,44.583 C 78.874,45.551 78.807,46.44 78.807,46.44 C 78.45875715069123,48.547589165890386 76.7965891658904,50.209757150691225 74.68900000000001,50.558 C 74.68900000000001,50.558 73.80000000000001,50.625 72.83300000000001,50.625 C 72.83300000000001,50.625 27.293000000000013,50.625 27.293000000000013,50.625 C 26.325000000000014,50.625 25.436000000000014,50.558 25.436000000000014,50.558 C 23.328410834109626,50.209757150691225 21.666242849308787,48.547589165890386 21.318000000000012,46.44 C 21.318000000000012,46.44 21.251000000000012,45.550999999999995 21.251000000000012,44.583 C 21.251000000000012,44.583 21.25,44.583 21.25,44.583 Z" style=""/>
         </g>
         <g id="g_5" transform="matrix(1.0, 0.0, 0.0, 1.0, 0.0, 0.0)" style="stroke:rgb(255, 255, 255);stroke-opacity:1.0;stroke-width:5.0;stroke-miterlimit:0.0;stroke-linecap:round;stroke-linejoin:round">
            <path d="M 50.063,25.344 C 50.062999941498944,21.418060247455422 53.293560140815266,18.187499925241184 57.219499893359846,18.187499866740122 C 61.145439645904425,18.18749980823906 64.37599994149895,21.418060247455422 64.376,25.344 C 64.376,29.269665460659404 61.14466546065941,32.5 57.21900000000001,32.5 C 57.21900000000001,32.5 50.06200000000001,32.5 50.06200000000001,32.5 C 50.06200000000001,32.5 50.06200000000001,25.344 50.06200000000001,25.344 C 50.06200000000001,25.344 50.063,25.344 50.063,25.344 Z" style=""/>
         </g>
         <g id="g_6" transform="matrix(1.0, 0.0, 0.0, 1.0, 0.0, 0.0)" style="stroke:rgb(255, 255, 255);stroke-opacity:1.0;stroke-width:5.0;stroke-miterlimit:0.0;stroke-linecap:round;stroke-linejoin:round">
            <path d="M 50.063,25.344 C 50.063000058496975,21.4183345393406 46.83266556729212,18.18799996426143 42.907000106632715,18.187999905764457 C 38.98133464597331,18.187999847267484 35.75100005849698,21.4183345393406 35.751000000000005,25.344 C 35.751000000000005,29.269287525763065 38.980712512558235,32.49945150737 42.906000000000006,32.5 C 42.906000000000006,32.5 50.063,32.5 50.063,32.5 C 50.063,32.5 50.063,25.344 50.063,25.344 C 50.063,25.344 50.063,25.344 50.063,25.344 Z" style=""/>
         </g>
      </g>
   </g>
</svg>
