<?xml version="1.0" ?>
<svg xmlns:inkscape="http://www.inkscape.org/namespaces/inkscape" xmlns:sodipodi="http://sodipodi.sourceforge.net/DTD/sodipodi-0.dtd" xmlns="http://www.w3.org/2000/svg" width="512" height="512" viewBox="0 0 512 512" version="1.1" inkscape:export-xdpi="96" inkscape:export-ydpi="96" style="fill: none; stroke: none">
   <defs/>
   <sodipodi:namedview inkscape:pagecheckerboard="true" borderlayer="true" bordercolor="#666666" pagecolor="#ffffff"/>
   <g inkscape:groupmode="layer" id="surface7644" inkscape:label="surface7644" transform="matrix(1.3333000000000002, 0.0, 0.0, 1.3333000000000002, 0.0, 0.0)" style="">
      <g id="g_1" inkscape:label="surface7644" transform="matrix(1.0, 0.0, 0.0, 1.0, 0.0, 0.0)" style="">
         <g id="g_2" transform="matrix(1.0, 0.0, 0.0, 1.0, 0.0, 0.0)" style="fill-opacity:1.0;fill:rgb(255, 255, 255)">
            <path d="M 77.16,177.49 C 144.91,148.03 190.07999999999998,128.61 212.69,119.22 C 277.23,92.43 290.64,87.78 299.38,87.62 C 301.3,87.59 305.6,88.07 308.38,90.32 C 310.73,92.22999999999999 311.38,94.8 311.69,96.6 C 312.0,98.39999999999999 312.38,102.52000000000001 312.08,105.73 C 308.58,142.41 293.45,231.42000000000002 285.75,272.5 C 282.49,289.88 276.08,295.71 269.87,296.28 C 256.37,297.52 246.12,287.37 233.05,278.82 C 212.60000000000002,265.44 201.04,257.11 181.19,244.05 C 158.24,228.96 173.11999999999998,220.66000000000003 186.2,207.11 C 189.61999999999998,203.56 249.07999999999998,149.57 250.23,144.68 C 250.36999999999998,144.07 250.51000000000002,141.79000000000002 249.15,140.58 C 247.79,139.37 245.79,139.79 244.34,140.12 C 242.29,140.58 209.61,162.14 146.31,204.79 C 137.03,211.15 128.64,214.23 121.11,214.07 C 112.81,213.89 96.85000000000001,209.39 84.98,205.54 C 70.43,200.82 58.87,198.32000000000002 59.87,190.3 C 60.4,186.12 66.16,181.85000000000002 77.16,177.49 C 77.16,177.49 77.16,177.49 77.16,177.49 Z" style="fill-opacity:1.0;fill:rgb(255, 255, 255)"/>
         </g>
      </g>
   </g>
</svg>
